<svg width="20" height="20" viewBox="0 0 20 20" fill="none" xmlns="http://www.w3.org/2000/svg">
<g clip-path="url(#clip0_10_2350)">
<path d="M5.97969 12.94H17.6594L14.7297 9.19L12.6594 11.69L9.72969 7.94L5.97969 12.94ZM18.4797 3.76031C18.9224 3.76031 19.313 3.92959 19.6516 4.26813C19.9901 4.60667 20.1594 4.99729 20.1594 5.44V13.7603C20.1594 14.203 19.9901 14.5936 19.6516 14.9322C19.313 15.2707 18.9224 15.44 18.4797 15.44H5.15938C4.71667 15.44 4.32604 15.2707 3.9875 14.9322C3.64896 14.5936 3.47969 14.203 3.47969 13.7603L3.51875 3.76031C3.51875 3.31761 3.675 2.94 3.9875 2.6275C4.32604 2.28896 4.71667 2.11969 5.15938 2.11969H10.1594L11.8391 3.76031H18.4797ZM1.83906 5.44V17.1197H16.8391V18.7603H1.83906C1.39635 18.7603 1.00573 18.6041 0.667188 18.2916C0.328646 17.953 0.159375 17.5624 0.159375 17.1197V5.44H1.83906Z" fill="white"/>
</g>
<defs>
<clipPath id="clip0_10_2350">
<rect width="19.13" height="19.13" fill="white" transform="translate(0 0.440002)"/>
</clipPath>
</defs>
</svg>
