<svg width="20" height="20" viewBox="0 0 20 20" fill="none" xmlns="http://www.w3.org/2000/svg">
<g clip-path="url(#clip0_10_2346)">
<path d="M17.425 4.30719C17.5813 4.46344 17.6594 4.65875 17.6594 4.89313C17.6594 5.1275 17.5813 5.32281 17.425 5.47906L9.96406 12.94L7.65938 10.6353L15.1203 3.17438C15.2766 3.01813 15.4719 2.94 15.7063 2.94C15.9406 2.94 16.1359 3.01813 16.2922 3.17438L17.425 4.30719ZM4.22188 12.8619C4.71667 12.3671 5.3026 12.1197 5.97969 12.1197C6.65677 12.1197 7.24271 12.3671 7.7375 12.8619C8.23229 13.3567 8.47969 13.9426 8.47969 14.6197C8.47969 15.5311 8.15417 16.3124 7.50313 16.9634C6.85208 17.6145 6.07083 17.94 5.15938 17.94C3.80521 17.94 2.69844 17.3801 1.83906 16.2603C2.22969 16.2603 2.59427 16.1171 2.93281 15.8306C3.2974 15.5181 3.47969 15.1145 3.47969 14.6197C3.47969 13.9426 3.72708 13.3567 4.22188 12.8619Z" fill="white"/>
</g>
<defs>
<clipPath id="clip0_10_2346">
<rect width="19.13" height="19.13" fill="white" transform="translate(0 0.440002)"/>
</clipPath>
</defs>
</svg>
