<svg width="24" height="24" viewBox="0 0 24 24" fill="none" xmlns="http://www.w3.org/2000/svg">
<path d="M11.6797 5.82031V4.17969H8.32031V5.82031H11.6797ZM16.6797 5.82031C17.1224 5.82031 17.5 5.98958 17.8125 6.32812C18.151 6.66667 18.3203 7.05729 18.3203 7.5V10C18.3203 10.4427 18.151 10.8333 17.8125 11.1719C17.5 11.5104 17.1224 11.6797 16.6797 11.6797H11.6797V10H8.32031V11.6797H3.32031C2.85156 11.6797 2.46094 11.5234 2.14844 11.2109C1.83594 10.8724 1.67969 10.4688 1.67969 10V7.5C1.67969 7.05729 1.83594 6.66667 2.14844 6.32812C2.48698 5.98958 2.8776 5.82031 3.32031 5.82031H6.64062V4.17969L8.32031 2.5H11.6406L13.3203 4.17969V5.82031H16.6797ZM8.32031 13.3203H11.6797V12.5H17.5V15.8203C17.5 16.2891 17.3307 16.6927 16.9922 17.0312C16.6797 17.3438 16.2891 17.5 15.8203 17.5H4.17969C3.71094 17.5 3.30729 17.3438 2.96875 17.0312C2.65625 16.6927 2.5 16.2891 2.5 15.8203V12.5H8.32031V13.3203Z" fill="white"/>
</svg>
