<svg width="20" height="20" viewBox="0 0 20 20" fill="none" xmlns="http://www.w3.org/2000/svg">
<g clip-path="url(#clip0_10_2342)">
<path d="M13.4797 17.1196V13.7603H16.8391V17.1196H13.4797ZM13.4797 12.1196V8.76025H16.8391V12.1196H13.4797ZM8.47969 7.11963V3.76025H11.8391V7.11963H8.47969ZM13.4797 3.76025H16.8391V7.11963H13.4797V3.76025ZM8.47969 12.1196V8.76025H11.8391V12.1196H8.47969ZM3.47969 12.1196V8.76025H6.83906V12.1196H3.47969ZM3.47969 17.1196V13.7603H6.83906V17.1196H3.47969ZM8.47969 17.1196V13.7603H11.8391V17.1196H8.47969ZM3.47969 7.11963V3.76025H6.83906V7.11963H3.47969Z" fill="white"/>
</g>
<defs>
<clipPath id="clip0_10_2342">
<rect width="19.13" height="19.13" fill="white" transform="translate(0 0.439941)"/>
</clipPath>
</defs>
</svg>
