<svg width="125" height="23" viewBox="0 0 125 23" fill="none" xmlns="http://www.w3.org/2000/svg">
<g clip-path="url(#clip0_10_2321)">
<path d="M14.0993 10.1926C15.3698 10.6453 16.363 11.3429 17.0775 12.2884C17.792 13.2339 18.1493 14.5151 18.1493 16.132C18.1493 17.3716 17.7966 18.5158 17.0945 19.566C16.3907 20.6162 15.3559 21.4508 13.9915 22.0714C12.6257 22.6904 10.9872 23 9.07618 23C7.16516 23 5.43123 22.6211 4.06687 21.8666C2.70098 21.1105 1.6831 20.1234 1.01016 18.9054C0.337225 17.6873 0.00152588 16.3645 0.00152588 14.9355H4.16081C4.20238 16.112 4.5812 17.1622 5.29571 18.0861C6.01023 19.0101 7.26987 19.472 9.07618 19.472C10.2111 19.472 11.1396 19.3104 11.8649 18.9839C12.5902 18.659 13.1046 18.2586 13.4095 17.7874C13.7144 17.3146 13.8668 16.8481 13.8668 16.3861C13.8668 15.5669 13.5203 14.9001 12.8274 14.3857C12.1344 13.8714 10.884 13.4988 9.07772 13.2678C6.99885 12.9952 5.35423 12.5794 4.14695 12.0235C2.93812 11.4676 2.0727 10.7531 1.54759 9.88153C1.02248 9.00994 0.760698 7.92277 0.760698 6.62001C0.760698 5.46508 1.0964 4.40409 1.76933 3.43703C2.44073 2.47151 3.41241 1.70926 4.68437 1.15335C5.95479 0.597448 7.4408 0.318726 9.14239 0.318726C10.9703 0.318726 12.4932 0.643645 13.7113 1.29502C14.9293 1.9464 15.8333 2.80721 16.4215 3.87898C17.0098 4.95076 17.3147 6.11646 17.3347 7.3761H13.2693C13.2693 6.47372 12.9336 5.65911 12.2607 4.93382C11.5878 4.20852 10.5283 3.84664 9.07772 3.84664C7.62713 3.84664 6.58923 4.11921 5.95787 4.66587C5.32805 5.21254 5.01237 5.80078 5.01237 6.4306C5.01237 7.94279 6.45064 8.85749 9.32872 9.17163C11.2397 9.40262 12.8305 9.74448 14.1024 10.1957" fill="#FAF5FA"/>
<path d="M34.6894 7.65637C35.7612 8.85442 36.2971 10.6084 36.2971 12.9182V22.749H32.2641V14.3057C32.2641 12.4994 32.0223 11.249 31.5388 10.556C31.0552 9.86306 30.2668 9.51658 29.175 9.51658C28.3974 9.51658 27.6674 9.78914 26.9853 10.3358C26.3031 10.8825 25.7503 11.6493 25.3314 12.6364C24.911 13.6235 24.7016 14.7369 24.7016 15.9765V22.7505H20.6686V0.0631104H24.7016V7.15283C24.7016 7.63636 24.66 8.04597 24.5753 8.38167C24.4906 8.71737 24.3659 9.06539 24.1965 9.4211C24.0918 9.67365 24.0394 9.8415 24.0394 9.92465C24.0394 10.1141 24.1226 10.2188 24.292 10.2403H24.3859C24.5322 10.2403 24.6585 10.1141 24.7632 9.86306C25.2252 8.8344 25.9397 7.90892 26.9052 7.08969C27.8707 6.27046 29.0056 5.86085 30.3084 5.86085C32.1563 5.86085 33.6161 6.45987 34.6879 7.65637" fill="#FAF5FA"/>
<path d="M40.7073 21.2045C39.6356 20.008 39.0997 18.254 39.0997 15.9426V6.11189H43.1327V14.5552C43.1327 16.3615 43.3744 17.6119 43.858 18.3048C44.3415 18.9978 45.1284 19.3443 46.2217 19.3443C46.9994 19.3443 47.7293 19.0717 48.4115 18.5251C49.0936 17.9799 49.6449 17.2131 50.0653 16.2244C50.4857 15.2374 50.6951 14.124 50.6951 12.8844V6.11035H54.7282V22.7459H50.6951V21.7065C50.6951 21.2445 50.7367 20.8518 50.8214 20.5254C50.9046 20.2005 51.0308 19.8371 51.2002 19.4382C51.3049 19.1657 51.3573 18.9963 51.3573 18.9347C51.3573 18.7453 51.2726 18.6405 51.1048 18.619H51.0108C50.863 18.619 50.7383 18.7453 50.6335 18.9963C50.1084 20.0465 49.3785 20.9766 48.4438 21.785C47.5091 22.5935 46.3911 22.9985 45.0884 22.9985C43.2389 22.9985 41.7806 22.3995 40.7089 21.2029" fill="#FAF5FA"/>
<path d="M64.2278 3.70198C64.0076 3.77589 63.8706 3.93296 63.8182 4.17473C63.7659 4.41649 63.7397 4.87384 63.7397 5.54524V6.11193H68.2762V9.64139H63.7397V22.749H59.7067V9.64139H57.1859V6.11193H59.7067V5.16643C59.7067 3.84365 59.8791 2.81345 60.2272 2.07892C60.5736 1.34439 61.1034 0.823898 61.8179 0.518997C62.5309 0.214096 63.4671 0.0616455 64.622 0.0616455H68.2778V3.5911H65.4736C64.8638 3.5911 64.4496 3.62806 64.2294 3.70198" fill="#FAF5FA"/>
<path d="M77.4925 3.70198C77.2723 3.77589 77.1353 3.93296 77.0829 4.17473C77.0306 4.41649 77.0044 4.87384 77.0044 5.54524V6.11193H81.5409V9.64139H77.0044V22.749H72.9714V9.64139H70.4506V6.11193H72.9714V5.16643C72.9714 3.84365 73.1454 2.81345 73.4919 2.07892C73.8383 1.34439 74.3681 0.823898 75.0826 0.518997C75.7971 0.214096 76.7318 0.0616455 77.8868 0.0616455H81.5409V3.5911H78.7368C78.127 3.5911 77.7127 3.62806 77.4925 3.70198Z" fill="#FAF5FA"/>
<path d="M88.6938 0.0631104H84.6608V22.749H88.6938V0.0631104Z" fill="#FAF5FA"/>
<path d="M97.2326 0.0631104H93.1996V22.749H97.2326V0.0631104Z" fill="#FAF5FA"/>
<path d="M102.978 22.8121L100.576 19.9633L110.416 11.6648C110.576 11.5293 110.576 11.2829 110.416 11.1474L100.576 2.84882L102.978 0L114.814 9.98165C115.339 10.4251 115.587 11.1289 115.43 11.8218C115.337 12.2315 115.095 12.5933 114.774 12.8644L102.978 22.8121Z" fill="#6E48C3"/>
</g>
<defs>
<clipPath id="clip0_10_2321">
<rect width="115.477" height="23" fill="white"/>
</clipPath>
</defs>
</svg>
